<svg xmlns="http://www.w3.org/2000/svg" viewBox="0 0 1600 420" width="1600" height="420" role="presentation" aria-hidden="true">
<defs>
  <linearGradient id="fon" x1="0" y1="0" x2="1" y2="1">
    <stop offset="0" stop-color="#071528"/>
    <stop offset=".55" stop-color="#0b2a4e"/>
    <stop offset="1" stop-color="#11467f"/>
  </linearGradient>
  <pattern id="tur" width="40" height="40" patternUnits="userSpaceOnUse">
    <path d="M40 0H0V40" fill="none" stroke="#9ecdf0" stroke-width=".7" opacity=".075"/>
  </pattern>
  <radialGradient id="nur" cx=".735" cy=".5" r=".33">
    <stop offset="0" stop-color="#9ecdf0" stop-opacity=".22"/>
    <stop offset="1" stop-color="#9ecdf0" stop-opacity="0"/>
  </radialGradient>
</defs>
<rect width="1600" height="420" fill="url(#fon)"/>
<rect width="1600" height="420" fill="url(#tur)"/>
  <g stroke="CHIZ" fill="none" opacity=".17">
    <circle cx="1720" cy="210" r="430" stroke-width="1.6"/>
    <ellipse cx="1720" cy="210" rx="400" ry="430" stroke-width="1.1"/>
    <ellipse cx="1720" cy="210" rx="320" ry="430" stroke-width="1.1"/>
    <ellipse cx="1720" cy="210" rx="200" ry="430" stroke-width="1.1"/>
    <ellipse cx="1720" cy="210" rx="70" ry="430" stroke-width="1.1"/>
    <path d="M1290 210h860" stroke-width="1.1"/>
    <path d="M1299 299h842" stroke-width="1.1"/>
    <path d="M1299 121h842" stroke-width="1.1"/>
    <path d="M1330 392h780" stroke-width="1.1"/>
    <path d="M1330 28h780" stroke-width="1.1"/>
    <path d="M1389 485h662" stroke-width="1.1"/>
    <path d="M1389 -65h662" stroke-width="1.1"/>
  </g>

<rect width="1600" height="420" fill="url(#nur)"/>
<!-- Matn zonasi bilan chizma zonasini ajratuvchi ingichka chiziq. -->
<g stroke="#9ecdf0" fill="none" opacity=".16">
  <path d="M944 118v184" stroke-width="1.2"/>
  <rect x="940" y="206" width="8" height="8" fill="#9ecdf0" stroke="none"/>
</g>
<g fill="none" stroke="#9ecdf0" stroke-width="2" stroke-linecap="round" stroke-linejoin="round">
  <path d="M1000 108v188h352" opacity=".45"/>
  <path d="M1006 156h346" opacity=".13" stroke-dasharray="3 9"/>
  <path d="M994 156h8" opacity=".3" stroke-width="1.6"/>
  <path d="M1006 202h346" opacity=".13" stroke-dasharray="3 9"/>
  <path d="M994 202h8" opacity=".3" stroke-width="1.6"/>
  <path d="M1006 248h346" opacity=".13" stroke-dasharray="3 9"/>
  <path d="M994 248h8" opacity=".3" stroke-width="1.6"/>
  <rect x="1012" y="274" width="15" height="22" fill="#9ecdf0" opacity=".11" stroke="none"/>
  <path d="M1019 296v7" opacity=".26" stroke-width="1.4"/>
  <rect x="1060" y="261" width="15" height="35" fill="#9ecdf0" opacity=".11" stroke="none"/>
  <path d="M1067 296v7" opacity=".26" stroke-width="1.4"/>
  <rect x="1108" y="248" width="15" height="48" fill="#9ecdf0" opacity=".11" stroke="none"/>
  <path d="M1115 296v7" opacity=".26" stroke-width="1.4"/>
  <rect x="1156" y="269" width="15" height="27" fill="#9ecdf0" opacity=".11" stroke="none"/>
  <path d="M1163 296v7" opacity=".26" stroke-width="1.4"/>
  <rect x="1204" y="256" width="15" height="40" fill="#9ecdf0" opacity=".11" stroke="none"/>
  <path d="M1211 296v7" opacity=".26" stroke-width="1.4"/>
  <rect x="1252" y="243" width="15" height="53" fill="#9ecdf0" opacity=".11" stroke="none"/>
  <path d="M1259 296v7" opacity=".26" stroke-width="1.4"/>
  <rect x="1300" y="264" width="15" height="32" fill="#9ecdf0" opacity=".11" stroke="none"/>
  <path d="M1307 296v7" opacity=".26" stroke-width="1.4"/>
  <path d="M1000,296 L1000,262 1058,234 1116,248 1174,194 1232,208 1290,152 1348,128 1348,296 Z" fill="#2f9be0" opacity=".14" stroke="none"/>
  <polyline points="1000,262 1058,234 1116,248 1174,194 1232,208 1290,152 1348,128" stroke="#7fd1ff" stroke-width="2.6"/>
  <circle cx="1000" cy="262" r="4.4" fill="#7fd1ff" stroke="none" opacity=".75"/>
  <circle cx="1058" cy="234" r="4.4" fill="#7fd1ff" stroke="none" opacity=".75"/>
  <circle cx="1116" cy="248" r="4.4" fill="#7fd1ff" stroke="none" opacity=".75"/>
  <circle cx="1174" cy="194" r="4.4" fill="#7fd1ff" stroke="none" opacity=".75"/>
  <circle cx="1232" cy="208" r="4.4" fill="#7fd1ff" stroke="none" opacity=".75"/>
  <circle cx="1290" cy="152" r="4.4" fill="#7fd1ff" stroke="none" opacity=".75"/>
  <circle cx="1348" cy="128" r="4.4" fill="#7fd1ff" stroke="none" opacity=".75"/>
  <path d="M1348 128v168" opacity=".26" stroke-dasharray="3 6" stroke-width="1.4"/>
  <path d="M1348 114l13 14-13 14-13-14z" fill="#7fd1ff" stroke="none"/>
  <circle cx="1290" cy="152" r="11" stroke="#7fd1ff" stroke-width="2.2"/>

</g>
</svg>